#tb 0: 1/25
#media_type 0: video
#codec_id 0: rawvideo
#dimensions 0: 416x240
#sar 0: 0/1
0,          0,          0,        1,   299520, 0xa7dea7b7
0,          1,          1,        1,   299520, 0x0c72e6fc
0,          2,          2,        1,   299520, 0x84a8945f
0,          3,          3,        1,   299520, 0xb884d205
0,          4,          4,        1,   299520, 0x50eca8a3
0,          5,          5,        1,   299520, 0x92620dd9
0,          6,          6,        1,   299520, 0xaf863c4f
0,          7,          7,        1,   299520, 0xaf38d595
0,          8,          8,        1,   299520, 0xc087e2fb
0,          9,          9,        1,   299520, 0x3aedbd2a
0,         10,         10,        1,   299520, 0x7dbbbcd2
0,         11,         11,        1,   299520, 0xdb38d7cb
0,         12,         12,        1,   299520, 0x0757b085
0,         13,         13,        1,   299520, 0x8f09d2af
0,         14,         14,        1,   299520, 0x18fcb2f5
0,         15,         15,        1,   299520, 0x7ed6105f
0,         16,         16,        1,   299520, 0xe349c425
0,         17,         17,        1,   299520, 0xe7e660be
0,         18,         18,        1,   299520, 0x10646b32
0,         19,         19,        1,   299520, 0xf51cee0b
0,         20,         20,        1,   299520, 0xb73fc2d1
0,         21,         21,        1,   299520, 0x8114066f
0,         22,         22,        1,   299520, 0xc6d30e30
0,         23,         23,        1,   299520, 0xabe8267f
0,         24,         24,        1,   299520, 0x7982a461
0,         25,         25,        1,   299520, 0xec80ad66
0,         26,         26,        1,   299520, 0xd6f38608
0,         27,         27,        1,   299520, 0x05853091
0,         28,         28,        1,   299520, 0x2da3d89c
0,         29,         29,        1,   299520, 0xa3f4d248
0,         30,         30,        1,   299520, 0x34f22f79
0,         31,         31,        1,   299520, 0x85f3ffc1
0,         32,         32,        1,   299520, 0x9ba237fc
0,         33,         33,        1,   299520, 0x59c27eec
0,         34,         34,        1,   299520, 0x71577852
0,         35,         35,        1,   299520, 0x106da61d
0,         36,         36,        1,   299520, 0xb9f0ab00
0,         37,         37,        1,   299520, 0xa1de4e29
0,         38,         38,        1,   299520, 0xf40e5a16
0,         39,         39,        1,   299520, 0x00e1e01a
0,         40,         40,        1,   299520, 0x1fc7c0bd
0,         41,         41,        1,   299520, 0x7559265d
0,         42,         42,        1,   299520, 0x65ac3c02
0,         43,         43,        1,   299520, 0x987503b8
0,         44,         44,        1,   299520, 0x11a1b81a
0,         45,         45,        1,   299520, 0xcf96a73b
0,         46,         46,        1,   299520, 0xb224bc1c
0,         47,         47,        1,   299520, 0xb2380d75
